<svg viewBox="0 0 40 40" xmlns="http://www.w3.org/2000/svg" fill="#60a5fa">
  <!-- 0deg arm -->
  <g transform="rotate(0 20 20)">
    <rect x="18.25" y="3" width="3.5" height="17" rx="1.75" />
    <rect x="18.5" y="4" width="3" height="4" rx="1.5" transform="rotate(60 20 8)" />
    <rect x="18.5" y="4" width="3" height="4" rx="1.5" transform="rotate(-60 20 8)" />
    <rect x="18.5" y="8" width="3" height="5" rx="1.5" transform="rotate(60 20 13)" />
    <rect x="18.5" y="8" width="3" height="5" rx="1.5" transform="rotate(-60 20 13)" />
    <circle cx="20" cy="3" r="2" />
  </g>
  <!-- 60deg arm -->
  <g transform="rotate(60 20 20)">
    <rect x="18.25" y="3" width="3.5" height="17" rx="1.75" />
    <rect x="18.5" y="4" width="3" height="4" rx="1.5" transform="rotate(60 20 8)" />
    <rect x="18.5" y="4" width="3" height="4" rx="1.5" transform="rotate(-60 20 8)" />
    <rect x="18.5" y="8" width="3" height="5" rx="1.5" transform="rotate(60 20 13)" />
    <rect x="18.5" y="8" width="3" height="5" rx="1.5" transform="rotate(-60 20 13)" />
    <circle cx="20" cy="3" r="2" />
  </g>
  <!-- 120deg arm -->
  <g transform="rotate(120 20 20)">
    <rect x="18.25" y="3" width="3.5" height="17" rx="1.75" />
    <rect x="18.5" y="4" width="3" height="4" rx="1.5" transform="rotate(60 20 8)" />
    <rect x="18.5" y="4" width="3" height="4" rx="1.5" transform="rotate(-60 20 8)" />
    <rect x="18.5" y="8" width="3" height="5" rx="1.5" transform="rotate(60 20 13)" />
    <rect x="18.5" y="8" width="3" height="5" rx="1.5" transform="rotate(-60 20 13)" />
    <circle cx="20" cy="3" r="2" />
  </g>
  <!-- 180deg arm -->
  <g transform="rotate(180 20 20)">
    <rect x="18.25" y="3" width="3.5" height="17" rx="1.75" />
    <rect x="18.5" y="4" width="3" height="4" rx="1.5" transform="rotate(60 20 8)" />
    <rect x="18.5" y="4" width="3" height="4" rx="1.5" transform="rotate(-60 20 8)" />
    <rect x="18.5" y="8" width="3" height="5" rx="1.5" transform="rotate(60 20 13)" />
    <rect x="18.5" y="8" width="3" height="5" rx="1.5" transform="rotate(-60 20 13)" />
    <circle cx="20" cy="3" r="2" />
  </g>
  <!-- 240deg arm -->
  <g transform="rotate(240 20 20)">
    <rect x="18.25" y="3" width="3.5" height="17" rx="1.75" />
    <rect x="18.5" y="4" width="3" height="4" rx="1.5" transform="rotate(60 20 8)" />
    <rect x="18.5" y="4" width="3" height="4" rx="1.5" transform="rotate(-60 20 8)" />
    <rect x="18.5" y="8" width="3" height="5" rx="1.5" transform="rotate(60 20 13)" />
    <rect x="18.5" y="8" width="3" height="5" rx="1.5" transform="rotate(-60 20 13)" />
    <circle cx="20" cy="3" r="2" />
  </g>
  <!-- 300deg arm -->
  <g transform="rotate(300 20 20)">
    <rect x="18.25" y="3" width="3.5" height="17" rx="1.75" />
    <rect x="18.5" y="4" width="3" height="4" rx="1.5" transform="rotate(60 20 8)" />
    <rect x="18.5" y="4" width="3" height="4" rx="1.5" transform="rotate(-60 20 8)" />
    <rect x="18.5" y="8" width="3" height="5" rx="1.5" transform="rotate(60 20 13)" />
    <rect x="18.5" y="8" width="3" height="5" rx="1.5" transform="rotate(-60 20 13)" />
    <circle cx="20" cy="3" r="2" />
  </g>
  <!-- Center hub -->
  <circle cx="20" cy="20" r="4" />
</svg>
